<mxfile host="app.diagrams.net" agent="Mozilla/5.0 (Windows NT 10.0; Win64; x64) AppleWebKit/537.36 (KHTML, like Gecko) Chrome/131.0.0.0 Safari/537.36" version="24.9.3">
  <diagram name="Сторінка-1" id="YtrOeZR1KNSvN80JUwMx">
    <mxGraphModel dx="858" dy="982" grid="1" gridSize="10" guides="1" tooltips="1" connect="1" arrows="1" fold="1" page="1" pageScale="1" pageWidth="827" pageHeight="1169" math="0" shadow="0">
      <root>
        <mxCell id="0" />
        <mxCell id="1" parent="0" />
        <mxCell id="RaULoPKSy1gYh36M385F-3" value="" style="edgeStyle=none;curved=1;rounded=0;orthogonalLoop=1;jettySize=auto;html=1;fontSize=12;startSize=8;endSize=8;" parent="1" source="RaULoPKSy1gYh36M385F-1" target="RaULoPKSy1gYh36M385F-2" edge="1">
          <mxGeometry relative="1" as="geometry" />
        </mxCell>
        <mxCell id="RaULoPKSy1gYh36M385F-1" value="Start" style="ellipse;whiteSpace=wrap;html=1;" parent="1" vertex="1">
          <mxGeometry x="130" y="30" width="120" height="80" as="geometry" />
        </mxCell>
        <mxCell id="RaULoPKSy1gYh36M385F-5" value="" style="edgeStyle=none;curved=1;rounded=0;orthogonalLoop=1;jettySize=auto;html=1;fontSize=12;startSize=8;endSize=8;" parent="1" source="RaULoPKSy1gYh36M385F-2" target="RaULoPKSy1gYh36M385F-4" edge="1">
          <mxGeometry relative="1" as="geometry" />
        </mxCell>
        <mxCell id="RaULoPKSy1gYh36M385F-2" value="output &quot;Введіть довжину дистанції (метрів) &amp;gt; &quot;" style="shape=parallelogram;perimeter=parallelogramPerimeter;whiteSpace=wrap;html=1;fixedSize=1;" parent="1" vertex="1">
          <mxGeometry x="105" y="150" width="170" height="60" as="geometry" />
        </mxCell>
        <mxCell id="RaULoPKSy1gYh36M385F-7" value="" style="edgeStyle=none;curved=1;rounded=0;orthogonalLoop=1;jettySize=auto;html=1;fontSize=12;startSize=8;endSize=8;" parent="1" source="RaULoPKSy1gYh36M385F-4" target="RaULoPKSy1gYh36M385F-6" edge="1">
          <mxGeometry relative="1" as="geometry" />
        </mxCell>
        <mxCell id="RaULoPKSy1gYh36M385F-4" value="input S" style="shape=parallelogram;perimeter=parallelogramPerimeter;whiteSpace=wrap;html=1;fixedSize=1;" parent="1" vertex="1">
          <mxGeometry x="105" y="255" width="170" height="60" as="geometry" />
        </mxCell>
        <mxCell id="RaULoPKSy1gYh36M385F-9" value="" style="edgeStyle=none;curved=1;rounded=0;orthogonalLoop=1;jettySize=auto;html=1;fontSize=12;startSize=8;endSize=8;" parent="1" source="RaULoPKSy1gYh36M385F-6" target="RaULoPKSy1gYh36M385F-8" edge="1">
          <mxGeometry relative="1" as="geometry" />
        </mxCell>
        <mxCell id="RaULoPKSy1gYh36M385F-6" value="output &quot;Введіть час (хвилин.секунд) &amp;gt; &quot;&amp;nbsp;" style="shape=parallelogram;perimeter=parallelogramPerimeter;whiteSpace=wrap;html=1;fixedSize=1;" parent="1" vertex="1">
          <mxGeometry x="105" y="350" width="170" height="60" as="geometry" />
        </mxCell>
        <mxCell id="RaULoPKSy1gYh36M385F-11" value="" style="edgeStyle=none;curved=1;rounded=0;orthogonalLoop=1;jettySize=auto;html=1;fontSize=12;startSize=8;endSize=8;" parent="1" source="RaULoPKSy1gYh36M385F-8" target="RaULoPKSy1gYh36M385F-10" edge="1">
          <mxGeometry relative="1" as="geometry" />
        </mxCell>
        <mxCell id="RaULoPKSy1gYh36M385F-8" value="input minutes, dot, seconds" style="shape=parallelogram;perimeter=parallelogramPerimeter;whiteSpace=wrap;html=1;fixedSize=1;" parent="1" vertex="1">
          <mxGeometry x="105" y="440" width="170" height="60" as="geometry" />
        </mxCell>
        <mxCell id="RaULoPKSy1gYh36M385F-13" value="" style="edgeStyle=none;curved=1;rounded=0;orthogonalLoop=1;jettySize=auto;html=1;fontSize=12;startSize=8;endSize=8;" parent="1" source="RaULoPKSy1gYh36M385F-10" target="RaULoPKSy1gYh36M385F-12" edge="1">
          <mxGeometry relative="1" as="geometry" />
        </mxCell>
        <mxCell id="RaULoPKSy1gYh36M385F-10" value="&lt;div&gt;t = minutes*60 + seconds;&lt;/div&gt;&lt;div&gt;v_ms = S/t;&lt;/div&gt;&lt;div&gt;&amp;nbsp; v = v_ms*3.6;&lt;/div&gt;" style="whiteSpace=wrap;html=1;" parent="1" vertex="1">
          <mxGeometry x="95" y="540" width="190" height="60" as="geometry" />
        </mxCell>
        <mxCell id="RaULoPKSy1gYh36M385F-15" value="" style="edgeStyle=none;curved=1;rounded=0;orthogonalLoop=1;jettySize=auto;html=1;fontSize=12;startSize=8;endSize=8;" parent="1" source="RaULoPKSy1gYh36M385F-12" target="RaULoPKSy1gYh36M385F-14" edge="1">
          <mxGeometry relative="1" as="geometry" />
        </mxCell>
        <mxCell id="RaULoPKSy1gYh36M385F-12" value="output&amp;nbsp;&quot;Дистанція: &quot;, S, &quot; м&quot;&lt;div&gt;&lt;div&gt;&quot;Час &quot;, minutes, &quot; хв &quot;, seconds, &quot; сек = &quot;, t, &quot; сек&quot;;&lt;/div&gt;&lt;div&gt;&amp;nbsp; &amp;nbsp;&quot;Швидкості бігу = &quot;,&amp;nbsp; v, &quot; км/година&quot;&lt;/div&gt;&lt;/div&gt;" style="shape=parallelogram;perimeter=parallelogramPerimeter;whiteSpace=wrap;html=1;fixedSize=1;" parent="1" vertex="1">
          <mxGeometry x="40" y="630" width="295" height="80" as="geometry" />
        </mxCell>
        <mxCell id="RaULoPKSy1gYh36M385F-14" value="The end" style="ellipse;whiteSpace=wrap;html=1;" parent="1" vertex="1">
          <mxGeometry x="147.5" y="750" width="80" height="50" as="geometry" />
        </mxCell>
        <mxCell id="hYlmx-f4uYQ3Y40EkDSv-3" value="" style="edgeStyle=none;curved=1;rounded=0;orthogonalLoop=1;jettySize=auto;html=1;fontSize=12;startSize=8;endSize=8;" edge="1" parent="1" source="hYlmx-f4uYQ3Y40EkDSv-1" target="hYlmx-f4uYQ3Y40EkDSv-2">
          <mxGeometry relative="1" as="geometry" />
        </mxCell>
        <mxCell id="hYlmx-f4uYQ3Y40EkDSv-1" value="Start" style="ellipse;whiteSpace=wrap;html=1;" vertex="1" parent="1">
          <mxGeometry x="580" y="70" width="120" height="80" as="geometry" />
        </mxCell>
        <mxCell id="hYlmx-f4uYQ3Y40EkDSv-5" value="" style="edgeStyle=none;curved=1;rounded=0;orthogonalLoop=1;jettySize=auto;html=1;fontSize=12;startSize=8;endSize=8;" edge="1" parent="1" source="hYlmx-f4uYQ3Y40EkDSv-2" target="hYlmx-f4uYQ3Y40EkDSv-4">
          <mxGeometry relative="1" as="geometry" />
        </mxCell>
        <mxCell id="hYlmx-f4uYQ3Y40EkDSv-2" value="pi = 3.14159265358979323846" style="whiteSpace=wrap;html=1;" vertex="1" parent="1">
          <mxGeometry x="550" y="180" width="180" height="50" as="geometry" />
        </mxCell>
        <mxCell id="hYlmx-f4uYQ3Y40EkDSv-7" value="" style="edgeStyle=none;curved=1;rounded=0;orthogonalLoop=1;jettySize=auto;html=1;fontSize=12;startSize=8;endSize=8;" edge="1" parent="1" source="hYlmx-f4uYQ3Y40EkDSv-4" target="hYlmx-f4uYQ3Y40EkDSv-6">
          <mxGeometry relative="1" as="geometry" />
        </mxCell>
        <mxCell id="hYlmx-f4uYQ3Y40EkDSv-4" value="output&amp;nbsp;&quot;Введіть r: &quot;&amp;nbsp;" style="shape=parallelogram;perimeter=parallelogramPerimeter;whiteSpace=wrap;html=1;fixedSize=1;" vertex="1" parent="1">
          <mxGeometry x="570" y="270" width="140" height="45" as="geometry" />
        </mxCell>
        <mxCell id="hYlmx-f4uYQ3Y40EkDSv-9" value="" style="edgeStyle=none;curved=1;rounded=0;orthogonalLoop=1;jettySize=auto;html=1;fontSize=12;startSize=8;endSize=8;" edge="1" parent="1" source="hYlmx-f4uYQ3Y40EkDSv-6" target="hYlmx-f4uYQ3Y40EkDSv-8">
          <mxGeometry relative="1" as="geometry" />
        </mxCell>
        <mxCell id="hYlmx-f4uYQ3Y40EkDSv-6" value="input r" style="shape=parallelogram;perimeter=parallelogramPerimeter;whiteSpace=wrap;html=1;fixedSize=1;" vertex="1" parent="1">
          <mxGeometry x="570" y="350" width="140" height="45" as="geometry" />
        </mxCell>
        <mxCell id="hYlmx-f4uYQ3Y40EkDSv-11" value="" style="edgeStyle=none;curved=1;rounded=0;orthogonalLoop=1;jettySize=auto;html=1;fontSize=12;startSize=8;endSize=8;" edge="1" parent="1" source="hYlmx-f4uYQ3Y40EkDSv-8" target="hYlmx-f4uYQ3Y40EkDSv-10">
          <mxGeometry relative="1" as="geometry" />
        </mxCell>
        <mxCell id="hYlmx-f4uYQ3Y40EkDSv-8" value="&lt;div&gt;V = (3*pi*r*r*r)/4;&lt;/div&gt;&lt;div&gt;S = 4*pi*r*r;&lt;/div&gt;" style="whiteSpace=wrap;html=1;" vertex="1" parent="1">
          <mxGeometry x="580" y="430" width="120" height="60" as="geometry" />
        </mxCell>
        <mxCell id="hYlmx-f4uYQ3Y40EkDSv-13" value="" style="edgeStyle=none;curved=1;rounded=0;orthogonalLoop=1;jettySize=auto;html=1;fontSize=12;startSize=8;endSize=8;" edge="1" parent="1" source="hYlmx-f4uYQ3Y40EkDSv-10" target="hYlmx-f4uYQ3Y40EkDSv-12">
          <mxGeometry relative="1" as="geometry" />
        </mxCell>
        <mxCell id="hYlmx-f4uYQ3Y40EkDSv-10" value="output&amp;nbsp;&quot;Об&#39;єм кулі V = &quot;, V" style="shape=parallelogram;perimeter=parallelogramPerimeter;whiteSpace=wrap;html=1;fixedSize=1;" vertex="1" parent="1">
          <mxGeometry x="550" y="520" width="180" height="60" as="geometry" />
        </mxCell>
        <mxCell id="hYlmx-f4uYQ3Y40EkDSv-15" value="" style="edgeStyle=none;curved=1;rounded=0;orthogonalLoop=1;jettySize=auto;html=1;fontSize=12;startSize=8;endSize=8;" edge="1" parent="1" source="hYlmx-f4uYQ3Y40EkDSv-12" target="hYlmx-f4uYQ3Y40EkDSv-14">
          <mxGeometry relative="1" as="geometry" />
        </mxCell>
        <mxCell id="hYlmx-f4uYQ3Y40EkDSv-12" value="output &quot;Площа поверхні кулі S = &quot;, S" style="shape=parallelogram;perimeter=parallelogramPerimeter;whiteSpace=wrap;html=1;fixedSize=1;" vertex="1" parent="1">
          <mxGeometry x="520" y="600" width="240" height="60" as="geometry" />
        </mxCell>
        <mxCell id="hYlmx-f4uYQ3Y40EkDSv-14" value="The end" style="ellipse;whiteSpace=wrap;html=1;" vertex="1" parent="1">
          <mxGeometry x="600" y="690" width="80" height="50" as="geometry" />
        </mxCell>
      </root>
    </mxGraphModel>
  </diagram>
</mxfile>
